{
  "accessors": [
    {
      "bufferView": 2,
      "componentType": 5126,
      "count": 65532,
      "max": [
        0.99263441562652588,
        1.4627212285995483,
        14.353120803833008
      ],
      "min": [
        -1.4883980751037598,
        -0.73784732818603516,
        9.6522903442382812
      ],
      "type": "VEC3"
    },
    {
      "bufferView": 2,
      "byteOffset": 786384,
      "componentType": 5126,
      "count": 65532,
      "max": [
        0.99999755620956421,
        0.99999475479125977,
        0.99987518787384033
      ],
      "min": [
        -0.99998337030410767,
        -0.99998915195465088,
        -0.99988329410552979
      ],
      "type": "VEC3"
    },
    {
      "bufferView": 1,
      "componentType": 5126,
      "count": 65532,
      "max": [
        0.99974644184112549,
        0.99975085258483887
      ],
      "min": [
        0.000244140625,
        0.00024425983428955078
      ],
      "type": "VEC2"
    },
    {
      "bufferView": 0,
      "componentType": 5125,
      "count": 295626,
      "max": [
        65531
      ],
      "min": [
        0
      ],
      "type": "SCALAR"
    },
    {
      "bufferView": 2,
      "byteOffset": 1572768,
      "componentType": 5126,
      "count": 65533,
      "max": [
        0.78259122371673584,
        1.5116845369338989,
        15.160887718200684
      ],
      "min": [
        -1.5164544582366943,
        -0.950553297996521,
        9.6647233963012695
      ],
      "type": "VEC3"
    },
    {
      "bufferView": 2,
      "byteOffset": 2359164,
      "componentType": 5126,
      "count": 65533,
      "max": [
        0.99996930360794067,
        0.99999862909317017,
        0.99995386600494385
      ],
      "min": [
        -0.9999503493309021,
        -0.99998784065246582,
        -0.9999459981918335
      ],
      "type": "VEC3"
    },
    {
      "bufferView": 1,
      "byteOffset": 524256,
      "componentType": 5126,
      "count": 65533,
      "max": [
        0.99974119663238525,
        0.99975365400314331
      ],
      "min": [
        0.000244140625,
        0.00024425983428955078
      ],
      "type": "VEC2"
    },
    {
      "bufferView": 0,
      "byteOffset": 1182504,
      "componentType": 5125,
      "count": 268188,
      "max": [
        65532
      ],
      "min": [
        0
      ],
      "type": "SCALAR"
    },
    {
      "bufferView": 2,
      "byteOffset": 3145560,
      "componentType": 5126,
      "count": 65532,
      "max": [
        1.2650758028030396,
        1.4280475378036499,
        15.062770843505859
      ],
      "min": [
        -1.5437973737716675,
        -0.87955927848815918,
        9.6658668518066406
      ],
      "type": "VEC3"
    },
    {
      "bufferView": 2,
      "byteOffset": 3931944,
      "componentType": 5126,
      "count": 65532,
      "max": [
        0.99975728988647461,
        0.9999421238899231,
        0.99998348951339722
      ],
      "min": [
        -0.99992364645004272,
        -0.99997782707214355,
        -0.99802827835083008
      ],
      "type": "VEC3"
    },
    {
      "bufferView": 1,
      "byteOffset": 1048520,
      "componentType": 5126,
      "count": 65532,
      "max": [
        0.99975103139877319,
        0.99975109100341797
      ],
      "min": [
        0.000244140625,
        0.00024425983428955078
      ],
      "type": "VEC2"
    },
    {
      "bufferView": 0,
      "byteOffset": 2255256,
      "componentType": 5125,
      "count": 254019,
      "max": [
        65531
      ],
      "min": [
        0
      ],
      "type": "SCALAR"
    },
    {
      "bufferView": 2,
      "byteOffset": 4718328,
      "componentType": 5126,
      "count": 65532,
      "max": [
        0.94549036026000977,
        1.4494073390960693,
        15.182782173156738
      ],
      "min": [
        -1.5434924364089966,
        -0.81289958953857422,
        9.040919303894043
      ],
      "type": "VEC3"
    },
    {
      "bufferView": 2,
      "byteOffset": 5504712,
      "componentType": 5126,
      "count": 65532,
      "max": [
        0.999908447265625,
        0.9999765157699585,
        0.99996078014373779
      ],
      "min": [
        -0.99994999170303345,
        -0.99999535083770752,
        -0.9999651312828064
      ],
      "type": "VEC3"
    },
    {
      "bufferView": 1,
      "byteOffset": 1572776,
      "componentType": 5126,
      "count": 65532,
      "max": [
        0.99972563982009888,
        0.99974995851516724
      ],
      "min": [
        0.000244140625,
        0.00024425983428955078
      ],
      "type": "VEC2"
    },
    {
      "bufferView": 0,
      "byteOffset": 3271332,
      "componentType": 5125,
      "count": 256452,
      "max": [
        65531
      ],
      "min": [
        0
      ],
      "type": "SCALAR"
    },
    {
      "bufferView": 2,
      "byteOffset": 6291096,
      "componentType": 5126,
      "count": 65532,
      "max": [
        1.2634022235870361,
        1.4323123693466187,
        15.182782173156738
      ],
      "min": [
        -1.4476948976516724,
        -1.0500872135162354,
        9.040313720703125
      ],
      "type": "VEC3"
    },
    {
      "bufferView": 2,
      "byteOffset": 7077480,
      "componentType": 5126,
      "count": 65532,
      "max": [
        0.99998623132705688,
        0.99996006488800049,
        0.99999499320983887
      ],
      "min": [
        -0.99989253282546997,
        -0.99979555606842041,
        -0.99999141693115234
      ],
      "type": "VEC3"
    },
    {
      "bufferView": 1,
      "byteOffset": 2097032,
      "componentType": 5126,
      "count": 65532,
      "max": [
        0.99971330165863037,
        0.99975103139877319
      ],
      "min": [
        0.000244140625,
        0.00024425983428955078
      ],
      "type": "VEC2"
    },
    {
      "bufferView": 0,
      "byteOffset": 4297140,
      "componentType": 5125,
      "count": 241230,
      "max": [
        65531
      ],
      "min": [
        0
      ],
      "type": "SCALAR"
    },
    {
      "bufferView": 2,
      "byteOffset": 7863864,
      "componentType": 5126,
      "count": 25370,
      "max": [
        1.2650758028030396,
        1.5341261625289917,
        14.865462303161621
      ],
      "min": [
        -1.5211570262908936,
        -0.71433734893798828,
        9.6650924682617188
      ],
      "type": "VEC3"
    },
    {
      "bufferView": 2,
      "byteOffset": 8168304,
      "componentType": 5126,
      "count": 25370,
      "max": [
        0.99975883960723877,
        0.99996960163116455,
        0.9999508261680603
      ],
      "min": [
        -0.99998337030410767,
        -0.99718391895294189,
        -0.99421614408493042
      ],
      "type": "VEC3"
    },
    {
      "bufferView": 1,
      "byteOffset": 2621288,
      "componentType": 5126,
      "count": 25370,
      "max": [
        0.99973791837692261,
        0.99975043535232544
      ],
      "min": [
        0.000244140625,
        0.00082790851593017578
      ],
      "type": "VEC2"
    },
    {
      "bufferView": 0,
      "byteOffset": 5262060,
      "componentType": 5125,
      "count": 82329,
      "max": [
        25369
      ],
      "min": [
        0
      ],
      "type": "SCALAR"
    },
    {
      "bufferView": 2,
      "byteOffset": 8472744,
      "componentType": 5126,
      "count": 65532,
      "max": [
        1.0388863086700439,
        1.2162468433380127,
        15.066315650939941
      ],
      "min": [
        -1.18541419506073,
        -1.0500872135162354,
        9.6662683486938477
      ],
      "type": "VEC3"
    },
    {
      "bufferView": 2,
      "byteOffset": 9259128,
      "componentType": 5126,
      "count": 65532,
      "max": [
        0.99999904632568359,
        0.99998432397842407,
        0.99995577335357666
      ],
      "min": [
        -0.99990975856781006,
        -0.99990546703338623,
        -0.9998665452003479
      ],
      "type": "VEC3"
    },
    {
      "bufferView": 1,
      "byteOffset": 2824248,
      "componentType": 5126,
      "count": 65532,
      "max": [
        0.99962639808654785,
        0.99973207712173462
      ],
      "min": [
        0.000244140625,
        0.0080567598342895508
      ],
      "type": "VEC2"
    },
    {
      "bufferView": 0,
      "byteOffset": 5591376,
      "componentType": 5125,
      "count": 299493,
      "max": [
        65531
      ],
      "min": [
        0
      ],
      "type": "SCALAR"
    },
    {
      "bufferView": 2,
      "byteOffset": 10045512,
      "componentType": 5126,
      "count": 65532,
      "max": [
        1.032931923866272,
        1.4692095518112183,
        15.175144195556641
      ],
      "min": [
        -1.3322972059249878,
        -1.0500872135162354,
        9.9479141235351562
      ],
      "type": "VEC3"
    },
    {
      "bufferView": 2,
      "byteOffset": 10831896,
      "componentType": 5126,
      "count": 65532,
      "max": [
        0.99999350309371948,
        0.99998968839645386,
        0.99997687339782715
      ],
      "min": [
        -0.99999147653579712,
        -0.9999542236328125,
        -0.99983006715774536
      ],
      "type": "VEC3"
    },
    {
      "bufferView": 1,
      "byteOffset": 3348504,
      "componentType": 5126,
      "count": 65532,
      "max": [
        0.99973124265670776,
        0.99973714351654053
      ],
      "min": [
        0.000244140625,
        0.0090333223342895508
      ],
      "type": "VEC2"
    },
    {
      "bufferView": 0,
      "byteOffset": 6789348,
      "componentType": 5125,
      "count": 292458,
      "max": [
        65531
      ],
      "min": [
        0
      ],
      "type": "SCALAR"
    },
    {
      "bufferView": 2,
      "byteOffset": 11618280,
      "componentType": 5126,
      "count": 65532,
      "max": [
        1.2650758028030396,
        1.5288958549499512,
        15.179548263549805
      ],
      "min": [
        -1.5074756145477295,
        -1.0332430601119995,
        9.6697502136230469
      ],
      "type": "VEC3"
    },
    {
      "bufferView": 2,
      "byteOffset": 12404664,
      "componentType": 5126,
      "count": 65532,
      "max": [
        0.99999326467514038,
        0.99983030557632446,
        0.99994951486587524
      ],
      "min": [
        -0.99974042177200317,
        -0.99998098611831665,
        -0.99989962577819824
      ],
      "type": "VEC3"
    },
    {
      "bufferView": 1,
      "byteOffset": 3872760,
      "componentType": 5126,
      "count": 65532,
      "max": [
        0.99958688020706177,
        0.99972361326217651
      ],
      "min": [
        0.000244140625,
        0.011963009834289551
      ],
      "type": "VEC2"
    },
    {
      "bufferView": 0,
      "byteOffset": 7959180,
      "componentType": 5125,
      "count": 271803,
      "max": [
        65531
      ],
      "min": [
        0
      ],
      "type": "SCALAR"
    },
    {
      "bufferView": 2,
      "byteOffset": 13191048,
      "componentType": 5126,
      "count": 4310,
      "max": [
        0.74501717090606689,
        1.5122350454330444,
        15.044589996337891
      ],
      "min": [
        -1.161191463470459,
        -0.79562675952911377,
        9.6679878234863281
      ],
      "type": "VEC3"
    },
    {
      "bufferView": 2,
      "byteOffset": 13242768,
      "componentType": 5126,
      "count": 4310,
      "max": [
        0.97739344835281372,
        0.99994534254074097,
        0.99983000755310059
      ],
      "min": [
        -0.99887794256210327,
        -0.99935626983642578,
        -0.98943823575973511
      ],
      "type": "VEC3"
    },
    {
      "bufferView": 1,
      "byteOffset": 4397016,
      "componentType": 5126,
      "count": 4310,
      "max": [
        0.99576640129089355,
        0.99951076507568359
      ],
      "min": [
        0.0046533839777112007,
        0.028987586498260498
      ],
      "type": "VEC2"
    },
    {
      "bufferView": 0,
      "byteOffset": 9046392,
      "componentType": 5125,
      "count": 12102,
      "max": [
        4309
      ],
      "min": [
        0
      ],
      "type": "SCALAR"
    }
  ],
  "asset": {
    "extras": {
      "author": "sonnycirasuolo (https://sketchfab.com/sonnycirasuolo)",
      "license": "CC-BY-4.0 (http://creativecommons.org/licenses/by/4.0/)",
      "source": "https://sketchfab.com/3d-models/pineapple-model-dslr-60fee6466bb6453b96669ec451ac1358",
      "title": "Pineapple Model DSLR"
    },
    "generator": "Sketchfab-9.92.1",
    "version": "2.0"
  },
  "bufferViews": [
    {
      "buffer": 0,
      "byteLength": 9094800,
      "byteOffset": 0,
      "name": "floatBufferViews",
      "target": 34963
    },
    {
      "buffer": 0,
      "byteLength": 4431496,
      "byteOffset": 9094800,
      "byteStride": 8,
      "name": "floatBufferViews",
      "target": 34962
    },
    {
      "buffer": 0,
      "byteLength": 13294488,
      "byteOffset": 13526296,
      "byteStride": 12,
      "name": "floatBufferViews",
      "target": 34962
    }
  ],
  "buffers": [
    {
      "byteLength": 26820784,
      "uri": "scene.bin"
    }
  ],
  "extensionsUsed": [
    "KHR_materials_unlit"
  ],
  "images": [
    {
      "uri": "textures/default_tex0_baseColor.jpeg"
    },
    {
      "uri": "textures/default_tex1_baseColor.jpeg"
    }
  ],
  "materials": [
    {
      "doubleSided": false,
      "emissiveFactor": [
        0,
        0,
        0
      ],
      "extensions": {
        "KHR_materials_unlit": {}
      },
      "name": "default_tex0",
      "pbrMetallicRoughness": {
        "baseColorFactor": [
          1,
          1,
          1,
          1
        ],
        "baseColorTexture": {
          "index": 0,
          "texCoord": 0
        },
        "metallicFactor": 0,
        "roughnessFactor": 1
      }
    },
    {
      "doubleSided": false,
      "emissiveFactor": [
        0,
        0,
        0
      ],
      "extensions": {
        "KHR_materials_unlit": {}
      },
      "name": "default_tex1",
      "pbrMetallicRoughness": {
        "baseColorFactor": [
          1,
          1,
          1,
          1
        ],
        "baseColorTexture": {
          "index": 1,
          "texCoord": 0
        },
        "metallicFactor": 0,
        "roughnessFactor": 1
      }
    }
  ],
  "meshes": [
    {
      "primitives": [
        {
          "attributes": {
            "NORMAL": 1,
            "POSITION": 0,
            "TEXCOORD_0": 2
          },
          "indices": 3,
          "material": 0,
          "mode": 4
        }
      ]
    },
    {
      "primitives": [
        {
          "attributes": {
            "NORMAL": 5,
            "POSITION": 4,
            "TEXCOORD_0": 6
          },
          "indices": 7,
          "material": 0,
          "mode": 4
        }
      ]
    },
    {
      "primitives": [
        {
          "attributes": {
            "NORMAL": 9,
            "POSITION": 8,
            "TEXCOORD_0": 10
          },
          "indices": 11,
          "material": 0,
          "mode": 4
        }
      ]
    },
    {
      "primitives": [
        {
          "attributes": {
            "NORMAL": 13,
            "POSITION": 12,
            "TEXCOORD_0": 14
          },
          "indices": 15,
          "material": 0,
          "mode": 4
        }
      ]
    },
    {
      "primitives": [
        {
          "attributes": {
            "NORMAL": 17,
            "POSITION": 16,
            "TEXCOORD_0": 18
          },
          "indices": 19,
          "material": 0,
          "mode": 4
        }
      ]
    },
    {
      "primitives": [
        {
          "attributes": {
            "NORMAL": 21,
            "POSITION": 20,
            "TEXCOORD_0": 22
          },
          "indices": 23,
          "material": 0,
          "mode": 4
        }
      ]
    },
    {
      "primitives": [
        {
          "attributes": {
            "NORMAL": 25,
            "POSITION": 24,
            "TEXCOORD_0": 26
          },
          "indices": 27,
          "material": 1,
          "mode": 4
        }
      ]
    },
    {
      "primitives": [
        {
          "attributes": {
            "NORMAL": 29,
            "POSITION": 28,
            "TEXCOORD_0": 30
          },
          "indices": 31,
          "material": 1,
          "mode": 4
        }
      ]
    },
    {
      "primitives": [
        {
          "attributes": {
            "NORMAL": 33,
            "POSITION": 32,
            "TEXCOORD_0": 34
          },
          "indices": 35,
          "material": 1,
          "mode": 4
        }
      ]
    },
    {
      "primitives": [
        {
          "attributes": {
            "NORMAL": 37,
            "POSITION": 36,
            "TEXCOORD_0": 38
          },
          "indices": 39,
          "material": 1,
          "mode": 4
        }
      ]
    }
  ],
  "nodes": [
    {
      "children": [
        1
      ],
      "name": "RootNode (gltf orientation matrix)",
      "rotation": [
        -0.70710678118654746,
        -0,
        -0,
        0.70710678118654757
      ]
    },
    {
      "children": [
        2
      ],
      "matrix": [
        0.3109322190284729,
        0,
        0,
        0,
        0,
        6.9040821732640567e-17,
        -0.3109322190284729,
        0,
        0,
        0.3109322190284729,
        6.9040821732640567e-17,
        0,
        0,
        -12.353503227233887,
        -11.8695068359375,
        1
      ],
      "name": "RootNode (model correction matrix)"
    },
    {
      "children": [
        3
      ],
      "name": "root"
    },
    {
      "children": [
        4
      ],
      "matrix": [
        1,
        0,
        0,
        0,
        0,
        2.2204460492503131e-16,
        1,
        0,
        0,
        -1,
        2.2204460492503131e-16,
        0,
        0,
        0,
        0,
        1
      ],
      "name": "GLTF_SceneRootNode"
    },
    {
      "children": [
        5,
        6,
        7,
        8,
        9,
        10,
        11,
        12,
        13,
        14
      ],
      "name": "_0"
    },
    {
      "mesh": 0,
      "name": ""
    },
    {
      "mesh": 1,
      "name": ""
    },
    {
      "mesh": 2,
      "name": ""
    },
    {
      "mesh": 3,
      "name": ""
    },
    {
      "mesh": 4,
      "name": ""
    },
    {
      "mesh": 5,
      "name": ""
    },
    {
      "mesh": 6,
      "name": ""
    },
    {
      "mesh": 7,
      "name": ""
    },
    {
      "mesh": 8,
      "name": ""
    },
    {
      "mesh": 9,
      "name": ""
    }
  ],
  "samplers": [
    {
      "magFilter": 9729,
      "minFilter": 9729,
      "wrapS": 33071,
      "wrapT": 33071
    }
  ],
  "scene": 0,
  "scenes": [
    {
      "name": "OSG_Scene",
      "nodes": [
        0
      ]
    }
  ],
  "textures": [
    {
      "sampler": 0,
      "source": 0
    },
    {
      "sampler": 0,
      "source": 1
    }
  ]
}

